<svg xmlns="http://www.w3.org/2000/svg" viewBox="0 0 200 70"><defs><style>.cls-1{fill:#fff;}</style></defs><g id="Layer_1" data-name="Layer 1"><rect x="35.5" y="13" width="139" height="46"/><path class="cls-1" d="M58.68,40.52l-.51,3.2c-.87,5.4-2,10.28-8,10.28-4.28,0-7.31-1.89-5.93-10.49l2.55-16.17C48,19.83,50.5,18,54.63,18c6.64,0,6.72,5.82,6,9.81l-.47,3.1H54.16l.71-4.46c.23-1.42.12-2.21-.63-2.21s-.91.53-1.18,2.21l-3,18.89c-.27,1.79-.15,2.37.47,2.37s1-.63,1.34-2.52l.75-4.67Z"/><path class="cls-1" d="M59,53.48l1.57-10h6L65,53.48Z"/><path class="cls-1" d="M73.21,18.52h6.13L77.22,31.91h1.84l2.13-13.39H87.4l-5.54,35H75.65L78,38.57H76.16L73.8,53.48H67.67Z"/><path class="cls-1" d="M102.32,28.7,99.73,44.87C98.59,52.06,96.15,54,91.63,54c-4.75,0-7-3.15-5.89-10.18l2.75-17.11c1.1-6.82,3.73-8.71,7.66-8.71C101.38,18,103.46,21.56,102.32,28.7Zm-7.7-2.31-3,19.16c-.19,1.32,0,2.16.63,2.16s1-.74,1.22-2.16l3-19.21c.23-1.57,0-2.05-.67-2.05S94.86,24.82,94.62,26.39Z"/><path class="cls-1" d="M109.16,38.73,106.8,53.48h-6.09l5.54-35h7.27c4.71,0,6.4,3.36,5.46,9.19l-.4,2.41c-.54,3.41-1.72,5.15-3.22,5.78,1.5,1.2,1.77,3.09.91,8.18-.71,4.15-1.34,8-1.42,9.4h-5.93c-.2-.63.12-3.1,1.37-11,.56-3.47.2-3.73-.82-3.73Zm1-5.93h.47c1.18,0,1.49-.58,1.85-2.78l.43-2.94c.31-2,.08-2.63-1.1-2.63h-.36Z"/><path class="cls-1" d="M123.61,25.13h-3.22l1.06-6.61H134L133,25.13H129.7l-4.48,28.35h-6.09Z"/><path class="cls-1" d="M148,28.7l-2.59,16.17c-1.14,7.19-3.58,9.13-8.1,9.13-4.75,0-7-3.15-5.89-10.18l2.75-17.11c1.1-6.82,3.73-8.71,7.66-8.71C147,18,149.11,21.56,148,28.7Zm-7.7-2.31-3,19.16c-.19,1.32,0,2.16.63,2.16s1-.74,1.22-2.16l3-19.21c.23-1.57,0-2.05-.67-2.05S140.5,24.82,140.27,26.39Z"/><path class="cls-1" d="M146.36,53.48l5.54-35h6.75c-.39,9.66-1.06,22.73-1.14,24.2h.28c.43-5.51,1.84-19.69,2.36-22.94l.19-1.26h5.74l-5.54,35h-7c.44-9.19,1.1-22.78,1.18-23.94h-.31c-.43,3.89-1.89,19.06-2.52,23.1l-.11.84Z"/><path d="M192.47,4.88v61H180.83V64.64h10.53V6.15H180.83V4.88Z"/><path d="M7.32,66V4.63H19V5.92H8.44V64.74H19V66Z"/><path d="M17,60.55,31.8,9H33L18.14,60.55Z"/></g></svg>